<?xml version="1.0" encoding="UTF-8"?>
<svg width="14px" height="16px" viewBox="0 0 14 16" version="1.1" xmlns="http://www.w3.org/2000/svg" xmlns:xlink="http://www.w3.org/1999/xlink">
    <title>编组</title>
    <defs>
        <filter color-interpolation-filters="auto" id="filter-1">
            <feColorMatrix in="SourceGraphic" type="matrix" values="0 0 0 0 1.000000 0 0 0 0 1.000000 0 0 0 0 1.000000 0 0 0 1.000000 0"></feColorMatrix>
        </filter>
    </defs>
    <g id="页面-1" stroke="none" stroke-width="1" fill="none" fill-rule="evenodd">
        <g id="首页-初始页面显示响水县备份" transform="translate(-1807.000000, -22.000000)">
            <g id="编组-30" transform="translate(49.000000, 22.000000)">
                <g id="编组" transform="translate(1758.000000, 0.000000)" filter="url(#filter-1)">
                    <g>
                        <path d="M6.77741972,0 C9.02329334,0 10.843835,1.79082052 10.843835,3.99962048 C10.843835,6.20885941 9.02331163,7.99977137 6.77741972,7.99977137 C4.53161925,7.99977137 2.7111142,6.20887769 2.7111142,3.99962048 C2.7111142,1.7903084 4.53222282,0 6.77741972,0 L6.77741972,0 L6.77741972,0 Z M6.77741972,0 C9.02329334,0 10.843835,1.79082052 10.843835,3.99962048 C10.843835,6.20885941 9.02331163,7.99977137 6.77741972,7.99977137 C4.53161925,7.99977137 2.7111142,6.20887769 2.7111142,3.99962048 C2.7111142,1.7903084 4.53222282,0 6.77741972,0 L6.77741972,0 L6.77741972,0 Z M5.25262603,9.33336229 L8.64194861,9.33336229 C11.5430585,9.33336229 13.8945746,11.6459575 13.8945746,14.4997879 L13.8945746,14.8326278 C13.8945746,15.9572565 11.5425646,16 8.64194861,16 L5.25262603,16 C2.35142473,16 0,15.9983539 0,14.8326278 L0,14.499788 C0,11.6459575 2.35144301,9.33336229 5.25262603,9.33336229 L5.25262603,9.33336229 L5.25262603,9.33336229 Z" id="形状" fill="#000000" fill-rule="nonzero"></path>
                    </g>
                </g>
            </g>
        </g>
    </g>
</svg>